<?xml version="1.0"?>
<svg xmlns="http://www.w3.org/2000/svg" version="1.2" baseProfile="tiny" width="800" height="800" viewBox="0 0 800 685" stroke-linecap="round" stroke-linejoin="round">
<style type="text/css" media="screen">  
    <![CDATA[  
    path {  
        fill: transparent;  
        stroke: #10949e;  
        stroke-width: 2;
        stroke-dasharray: 0;
        stroke-dashoffset: 0;
        transition: all 0.3s ease;
    }

    /* Smooth fill transition on hover */
    path:hover {
        fill: #10949e;
        fill-opacity: 0.8;
        stroke-width: 3;
        filter: drop-shadow(2px 2px 4px rgba(16, 148, 158, 0.3));
    }


    /* Add this class to paths you want to animate on load */
    .animate-on-load {
        stroke-dasharray: 1000;
        stroke-dashoffset: 1000;
        animation: drawPath 2s ease forwards;
    }

    path:hover {
        animation: pulsePath 1s ease-in-out infinite;
    }

    /* Optional: Add a glowing effect on hover */
    .glow-on-hover:hover {
        stroke: #10949e;
        filter: drop-shadow(0 0 8px rgba(16, 148, 158, 0.6));
    }
    ]]>  
</style>
<g id="distritos">
<path d="M 211.21 228.51 217.08 228.62 224.21 225.86 244.4 239.18 249.15 231.83 254.9 235.36 247.39 246.82 252 248.91 253.09 258.73 255.74 261.82 252.82 271.25 251.31 272.6 244.05 277.56 244.08 281.66 225.5 293.26 206.9 285.48 190.02 281.39 187.96 279.81 200.65 255.02 198.51 251.48 203.15 250.23 202.83 244.42 211.21 228.51 Z"/>
<path d="M 185.63 213.75 186.36 218.54 191.78 221.37 193.53 218.04 200.93 223.06 211.21 228.51 202.83 244.42 203.15 250.23 198.51 251.48 200.65 255.02 187.96 279.81 183.7 275.76 179.5 274.29 173.86 276.94 167.51 277.35 163.02 274.56 150.42 264.93 151.16 259.48 157.43 256.43 159.51 251.41 180.68 211.12 185.63 213.75 Z"/>
<path d="M 201.51 81.76 198.98 88.74 197.89 104.33 199.19 109.64 198.97 117.94 195.36 124.75 180.26 123.38 179.43 123.9 144.15 113.51 153.01 82.9 159.78 84.95 164.59 68.35 165.72 68.68 167.46 76.28 193.25 78.75 201.51 81.76 Z"/>
<path d="M 263.47 229.93 280.49 213.62 279.73 212.85 293.87 198.74 310.62 213.85 324.37 225.14 333.69 227.4 324.84 256.64 313.41 253.07 305.4 252.92 299.68 255.06 294.26 250.76 278.73 239.87 276.79 242.58 271.14 239.26 272.83 235.47 263.47 229.93 Z"/>
<path d="M 44.32 335.17 46.61 326.77 51.58 328.12 56.17 311.82 75.59 317.3 147.41 340.35 146.59 343.06 156.04 346.17 140.14 362.5 130.18 356.71 120.14 353.99 118.92 358.21 111.45 355.55 89.49 358.63 91.89 350.85 66.73 342.64 68.2 338.04 55.31 334.19 54.86 336.52 44.32 335.17 Z"/>
<path d="M 327.31 545.38 333.55 508.74 337.95 502.61 345.48 510.84 347.78 508.64 347.37 501.55 351.68 499.79 351.53 496.58 355.79 493.25 357.97 487.64 361.9 483.71 364.17 479.17 373.83 488.39 374.74 487.48 383.46 495.9 379.93 499.88 377.51 499.97 390.91 511.31 394.19 514.8 389.23 520.65 398.7 522.02 391.29 548.98 394.61 550.46 393.39 553.7 414.47 564.01 416.47 558.33 439.57 566.72 432.42 569.65 423.39 568.65 418.69 569.79 409.9 574.55 402.83 583.63 378.59 578.29 344.52 570.29 338.16 568.15 324.09 564.89 327.31 545.38 Z"/>
<path d="M 389.51 142.07 422.63 152.78 425.52 154.12 420.68 168.85 416.36 182.06 395.26 179.81 392.17 180.36 386.22 151.84 389.51 142.07 Z"/>
<path d="M 343.63 303.91 313.46 294.73 307.88 292.77 292.51 279.45 295.19 271.45 303.24 266.27 311.12 265.8 326.04 269.59 333.16 271.09 340.46 269.96 355.35 259.88 359.89 255.83 362.29 251.73 370.47 230.7 374.83 225.89 383.97 221.26 386.87 220.74 391.03 222.89 395.86 228.47 402.5 230.1 405.39 248.67 406.9 255.23 418.64 298.05 424.04 310 421.48 313.53 423.3 317.74 422.78 324.02 421.1 326.33 416.09 327.94 415.41 333.4 409.17 332.06 408.99 320.26 403.07 319.2 402.46 322.71 398.81 325.44 395.07 324.84 394.43 328.31 387.93 326.43 388.45 323.57 382.09 322.32 378.94 318.13 371.66 316.27 372.37 313.73 386.25 316.2 387.58 308.56 378.11 308.11 371.03 311.12 365.09 310.55 343.63 303.91 Z"/>
<path d="M 184.6 496.43 204.78 434.62 208.12 429.67 213.05 425.41 215.13 421.62 213.03 409.47 214.48 404.78 227.82 409.17 238.03 420.85 268.16 435.51 270.34 436.32 268.48 442.69 267.65 452.75 261.88 477.49 255.17 508.62 253.64 510.51 245.69 512.21 239.22 511.8 187.09 498.33 184.6 496.43 Z"/>
<path d="M 16.47 332.15 44.32 335.17 54.86 336.52 55.31 334.19 68.2 338.04 66.73 342.64 91.89 350.85 89.49 358.63 111.45 355.55 118.92 358.21 120.14 353.99 130.18 356.71 140.14 362.5 68.8 435.81 67.5 436.24 53.11 422.38 56.42 416.6 34.32 400.07 26.01 397.97 28.56 387.11 1.69 380.89 1 369.5 5.15 366.78 10.69 360.94 12.71 357.07 10.25 353.81 8.5 346.17 10.66 343.16 11.2 337.05 16.47 332.15 Z"/>
<path d="M 383.11 108.59 379.58 116.92 380.79 130.75 364.71 125.49 371.53 102.82 373.37 96.98 377.76 97.52 389.91 97.18 383.11 108.59 Z"/>
<path d="M 472.59 149.54 506.06 160.37 509.91 161.58 499.47 178.28 487.66 193.4 483.08 198.55 479.79 199.97 466.82 202.84 460.88 206.15 454.5 206.23 462.29 181.72 472.59 149.54 Z"/>
<path d="M 290.52 55.82 288.09 61.52 284.71 86.45 280.94 86.71 252.86 94.25 240.67 97.62 250.38 68.16 257.72 45.87 251.62 43.68 253.69 37.69 254.42 40.88 262.54 44.48 267.12 43.73 273.4 47.53 279.76 48.38 285.82 54.1 290.52 55.82 Z"/>
<path d="M 649.61 382.46 654.98 376.08 658.68 374.16 660.28 370.39 656.49 364.47 656.18 361.23 650.72 356.03 648.49 352.52 643.69 351.46 640.5 352.65 632.49 352.63 629.6 349.45 628.91 335.36 627.37 333.06 622.45 332.01 623.62 328.1 620.54 321.81 618.31 318.75 620.41 312.02 625.48 305.29 626.9 298.73 634.73 295.82 637.99 291.41 635.4 286.71 640.83 286.55 643.85 281.58 647.38 281.59 651.41 284.85 654.86 284.8 660.89 281.84 667.42 286.87 673.93 289.54 675.58 292.19 674.28 297.06 677.44 299.48 680.89 297.61 683.02 292.56 676.81 269.79 680.11 265.57 685.33 266.42 690.94 267.98 695.87 278.28 709.68 302.4 724.81 327.69 731.06 338.68 734.96 343.54 740.31 352.18 746.55 364.04 748.66 365.6 752.34 372.37 763.1 385.86 770.2 397.44 775.19 403.68 782.28 415.2 791.5 428.27 796.31 434.13 799 445.31 796.31 449.57 791.83 451.48 784.72 445.5 785.15 437.81 781.31 434.31 773.21 429.55 724.24 409.63 723.98 405.19 722.02 403.42 674.24 396.12 671.28 394.54 661.67 384.14 658.67 382.35 649.61 382.46 Z"/>
<path d="M 224.21 225.86 232.38 212.89 223.54 204.45 227.31 200.9 225.65 199.12 232.5 192.57 235.35 194.83 242.66 186.62 240.3 184.42 243.75 180.36 263.48 200.47 266.2 197.78 279.73 212.85 280.49 213.62 263.47 229.93 260 236.23 254.9 235.36 249.15 231.83 244.4 239.18 224.21 225.86 Z"/>
<path d="M 555.94 425.46 553.01 423.04 554.22 408.96 552.77 391.71 547.89 334.96 553.99 327.54 620.54 321.81 623.62 328.1 622.45 332.01 627.37 333.06 628.91 335.36 629.6 349.45 632.49 352.63 640.5 352.65 643.69 351.46 648.49 352.52 650.72 356.03 656.18 361.23 656.49 364.47 660.28 370.39 658.68 374.16 654.98 376.08 649.61 382.46 648.51 382.59 629.51 384.68 619.41 386.33 596.88 391.18 592.84 403.54 587.09 409.9 555.94 425.46 Z"/>
<path d="M 211.21 228.51 200.93 223.06 193.53 218.04 191.78 221.37 186.36 218.54 185.63 213.75 186.91 207.02 181.62 196.56 180.76 192.96 173.02 177.97 171.98 170.15 171.15 159.25 198.14 155.31 230.87 151.33 230.75 154.72 233.55 158.36 232.79 166.41 238.95 165.39 248.14 175.25 243.75 180.36 240.3 184.42 242.66 186.62 235.35 194.83 232.5 192.57 225.65 199.12 227.31 200.9 223.54 204.45 232.38 212.89 224.21 225.86 217.08 228.62 211.21 228.51 Z"/>
<path d="M 319.47 155.59 324.36 156.53 348.9 177.54 333.69 227.4 324.37 225.14 310.62 213.85 293.87 198.74 320.47 172.08 321.37 167.85 319.47 155.59 Z"/>
<path d="M 620.54 321.81 553.99 327.54 532.9 329.37 532.24 320.88 524.55 230.91 523.32 227.71 520.11 225.64 499.08 220.41 496.03 215.8 498.36 204.09 502.64 204.56 512.08 201.66 515.58 202.86 524.55 209.62 554.76 230.7 569.03 245.81 571.02 247.04 594.42 254.09 604.26 255.96 610.31 253.51 615.29 252.77 620.77 253.65 633.4 261.59 660.89 281.84 654.86 284.8 651.41 284.85 647.38 281.59 643.85 281.58 640.83 286.55 635.4 286.71 637.99 291.41 634.73 295.82 626.9 298.73 625.48 305.29 620.41 312.02 618.31 318.75 620.54 321.81 Z"/>
<path d="M 460.79 662.38 464.87 631.05 474.23 597.32 475.54 577.42 478.28 565.84 482.09 544.61 485.36 523.35 485.95 514.12 491.26 516.12 499.89 517.2 503.86 515.79 510.75 515.2 512.83 508.63 514.26 499.51 514.05 485.78 517.32 487.45 545.73 501.97 566.15 513.39 577.29 520.02 576.72 530.97 572.91 536.52 567.72 534.81 562.75 536.97 561.72 540.77 564.48 543.25 564.25 546.19 558.32 547.02 555.19 550.32 550.26 549.95 548.36 554.4 550.45 560.94 543.67 563.92 541.29 567.91 543.74 571.57 542.15 574.83 536.22 574.85 531.85 580.63 528.75 578.79 523.23 578.92 520.75 582.63 517.41 582.42 512.86 586.61 507.16 587.66 504.27 593.77 505.74 599.21 500.63 608.27 495.62 615.43 494.3 619.46 495.08 624.23 491.85 627.99 492.8 631.41 490.67 636.73 488.21 647.12 484.37 651.48 474.86 659.94 460.79 662.38 Z"/>
<path d="M 145.79 270.91 149.21 268.29 150.42 264.93 163.02 274.56 167.51 277.35 173.86 276.94 179.5 274.29 183.7 275.76 187.96 279.81 190.02 281.39 206.9 285.48 225.5 293.26 207.43 304.86 179.51 322.46 167.58 334.34 162.64 321.94 163.57 313.72 156.58 312.48 154.11 309.55 151.09 298.79 146.04 291.11 147.43 284.42 144.39 274.03 145.79 270.91 Z"/>
<path d="M 499.92 197.3 487.66 193.4 499.47 178.28 509.91 161.58 579.57 184.06 576.1 197.58 571.25 212.62 547.29 204.82 552.9 187.26 535.84 181.72 535.14 184.51 522.32 180.41 523.49 177.74 512.78 174.52 508.05 175.45 503.63 180.55 499.92 197.3 Z"/>
<path d="M 360.36 139.89 356.89 138.78 355.91 142.27 344.81 138.78 347.8 128.66 355.91 101.33 363.52 103.9 365 100.63 371.53 102.82 364.71 125.49 360.36 139.89 Z"/>
<path d="M 348.63 341.67 340.57 352.01 334.96 348.64 336.17 343.13 331.56 341.56 326.18 337.59 322.95 340.73 317.68 338.8 318.07 336.87 304.47 332.6 303.03 337.34 299.7 339.53 292.38 337.22 288.53 340.12 292.71 331.96 295.53 322.8 297.49 319 287.41 313.6 284.92 310.72 293.02 290.51 289.15 289.3 291.29 282.99 292.51 279.45 307.88 292.77 313.46 294.73 343.63 303.91 340.02 314.51 336.72 318.57 338.15 322.43 345.46 324.83 341.96 327.84 339.26 335.41 348.63 341.67 Z"/>
<path d="M 360.36 139.89 348.9 177.54 324.36 156.53 319.47 155.59 319 153.07 315.96 134.45 314.97 133.31 312.2 117.47 313.26 117.35 347.8 128.66 344.81 138.78 355.91 142.27 356.89 138.78 360.36 139.89 Z"/>
<path d="M 207.43 304.86 225.5 293.26 244.08 281.66 244.05 277.56 251.31 272.6 256.68 279.62 265.32 278.31 280.57 279.36 291.29 282.99 289.15 289.3 293.02 290.51 284.92 310.72 287.41 313.6 297.49 319 295.53 322.8 292.71 331.96 288.53 340.12 282.6 352.68 272.03 367.82 266.09 377.49 262.5 369.65 258.33 364.3 254.99 353.92 252.52 350.01 263.91 319.91 243.08 313.52 241.32 321.93 226.13 316.39 220.73 313.64 215.53 310.81 207.43 304.86 Z"/>
<path d="M 348.63 341.67 357.87 350.73 359.3 353.02 365.65 369.16 367.42 371.85 388.02 394.83 391.81 396.78 415.9 402.84 414.85 407.39 411.56 409.22 409.97 412.81 405.9 414.23 403.28 417.79 400.78 426.26 402.12 428 402.8 434.55 398.06 438.95 394.69 448.08 390.84 448.73 385.79 453.18 378.11 457.09 371.05 463.76 350.84 459.33 336.75 452.47 318 447.95 299.65 445.2 270.34 436.32 299.7 339.53 303.03 337.34 304.47 332.6 318.07 336.87 317.68 338.8 322.95 340.73 326.18 337.59 331.56 341.56 336.17 343.13 334.96 348.64 340.57 352.01 348.63 341.67 Z"/>
<path d="M 290.52 55.82 300.23 62.99 302.86 62.87 307.61 67.01 312.12 68.13 312.84 72.69 310.49 77.05 308.59 97.95 310.82 110.44 304.04 110.02 291.11 111.03 259.85 116.72 252.86 94.25 280.94 86.71 284.71 86.45 288.09 61.52 290.52 55.82 Z"/>
<path d="M 685.33 266.42 680.11 265.57 676.81 269.79 683.02 292.56 680.89 297.61 677.44 299.48 674.28 297.06 675.58 292.19 673.93 289.54 667.42 286.87 660.89 281.84 633.4 261.59 620.77 253.65 615.29 252.77 610.31 253.51 604.26 255.96 594.42 254.09 608.83 208.4 624.31 213.47 629.17 218.2 654.72 205.64 664.77 227.22 667.82 230.3 674.28 244.17 682.48 258.24 682.31 261.86 685.33 266.42 Z"/>
<path d="M 276.43 161.78 319 153.07 319.47 155.59 321.37 167.85 320.47 172.08 293.87 198.74 279.73 212.85 266.2 197.78 265.99 196.38 281.32 179.29 279.56 176.8 276.43 161.78 Z"/>
<path d="M 276.43 161.78 279.56 176.8 281.32 179.29 265.99 196.38 266.2 197.78 263.48 200.47 243.75 180.36 248.14 175.25 238.95 165.39 232.79 166.41 233.55 158.36 230.75 154.72 230.87 151.33 272.54 142.79 276.43 161.78 Z"/>
<path d="M 167.58 334.34 179.51 322.46 207.43 304.86 215.53 310.81 220.73 313.64 217.92 317.23 215.17 325.28 214.17 352.88 214.01 365.53 173.29 363.54 177.43 359.16 167.58 334.34 Z"/>
<path d="M 552.77 391.71 538.39 393.18 538.22 391.63 524.85 388.59 520.13 386.35 479.29 372.7 474.7 366.4 482.3 363.05 483.49 349.08 484.31 329.7 483.56 319.36 490.23 321.2 498.82 320.26 515.02 322.34 532.24 320.88 532.9 329.37 553.99 327.54 547.89 334.96 552.77 391.71 Z"/>
<path d="M 555.94 425.46 553.56 427.66 532.87 456.43 527.12 460.35 530.2 445.04 492.24 440.22 483.14 440.23 467.92 405.49 464.91 404.22 464.32 396.7 452.85 371.36 469.83 368.3 474.7 366.4 479.29 372.7 520.13 386.35 524.85 388.59 538.22 391.63 538.39 393.18 552.77 391.71 554.22 408.96 553.01 423.04 555.94 425.46 Z"/>
<path d="M 577.29 520.02 566.15 513.39 545.73 501.97 517.32 487.45 521.89 478.8 526.05 479.33 527.12 460.35 532.87 456.43 553.56 427.66 555.94 425.46 587.09 409.9 592.84 403.54 596.88 391.18 619.41 386.33 629.51 384.68 648.51 382.59 649.9 387.65 652.29 387.88 655.15 393.89 657.89 393.84 659.62 397.58 664.18 402.48 668.49 413.12 668.52 417.13 664.33 423.46 659.09 427.68 651.84 430.93 651.83 434.9 648.66 439.88 652.85 446.2 650.4 456.73 650.17 462.58 648.4 472.76 642.71 487.31 637.43 489.94 630.63 498.21 624.14 502.67 614.78 502.37 607.23 510.09 601.22 511.46 594.79 509.1 589.69 511.91 586.85 507.92 584.84 510.76 580.47 512.75 577.29 520.02 Z"/>
<path d="M 425.52 154.12 431.39 136.11 472.59 149.54 462.29 181.72 420.68 168.85 425.52 154.12 Z"/>
<path d="M 55.76 293.92 80.44 300.7 82.31 293.6 103.96 299.57 143.3 310.59 144.01 308.11 150.88 310.1 154.11 309.55 156.58 312.48 163.57 313.72 162.64 321.94 167.58 334.34 156.04 346.17 146.59 343.06 147.41 340.35 75.59 317.3 56.17 311.82 51.58 328.12 46.61 326.77 44.32 335.17 16.47 332.15 22.57 309.9 34.51 313.3 36.45 306.36 41.33 307.68 43.26 300.63 53.1 303.49 55.76 293.92 Z"/>
<path d="M 424.04 310 429.11 321.12 446.28 319.74 455.08 322.31 484.31 329.7 483.49 349.08 482.3 363.05 474.7 366.4 469.83 368.3 452.85 371.36 440.71 375.82 438.03 393.61 435.43 400.19 428.65 404.57 423.64 404.76 415.9 402.84 391.81 396.78 388.02 394.83 367.42 371.85 365.65 369.16 359.3 353.02 357.87 350.73 348.63 341.67 339.26 335.41 341.96 327.84 345.46 324.83 338.15 322.43 336.72 318.57 340.02 314.51 343.63 303.91 365.09 310.55 371.03 311.12 378.11 308.11 387.58 308.56 386.25 316.2 372.37 313.73 371.66 316.27 378.94 318.13 382.09 322.32 388.45 323.57 387.93 326.43 394.43 328.31 395.07 324.84 398.81 325.44 402.46 322.71 403.07 319.2 408.99 320.26 409.17 332.06 415.41 333.4 416.09 327.94 421.1 326.33 422.78 324.02 423.3 317.74 421.48 313.53 424.04 310 Z"/>
<path d="M 402.83 583.63 409.9 574.55 418.69 569.79 423.39 568.65 432.42 569.65 439.57 566.72 442.25 562.97 443.2 557.36 446.48 550.3 449.48 541.29 453.98 530.15 461.06 516.84 468.9 508.66 476.95 501.29 482.8 499.54 486.56 497.11 485.95 514.12 485.36 523.35 482.09 544.61 478.28 565.84 475.54 577.42 474.23 597.32 464.87 631.05 460.79 662.38 454.43 664.22 447.98 671.05 438.43 664.89 430.78 664.7 424.3 670.03 419.6 684.35 396.49 663.67 361.93 633.27 366.68 629.31 370.82 617.92 372.74 610.89 376.59 605.1 385.67 597.47 397.6 592.38 402.83 583.63 Z"/>
<path d="M 389.51 142.07 399.85 110.07 421.78 116.79 436.06 121.71 431.39 136.11 425.52 154.12 422.63 152.78 389.51 142.07 Z"/>
<path d="M 402.5 230.1 397.84 208.05 442.26 202.8 447.61 204.48 445.66 210.49 449.49 210.23 451.88 213.81 447 218.68 442.57 227.51 435.7 232.35 429.68 233.09 402.5 230.1 Z"/>
<path d="M 576.1 197.58 579.01 198.55 577.27 205.63 579.62 207.97 589.47 211.27 592.25 211.2 594.56 205.63 596.58 204.3 608.83 208.4 594.42 254.09 571.02 247.04 569.03 245.81 554.76 230.7 524.55 209.62 515.58 202.86 512.08 201.66 502.64 204.56 498.36 204.09 499.92 197.3 503.63 180.55 508.05 175.45 512.78 174.52 523.49 177.74 522.32 180.41 535.14 184.51 535.84 181.72 552.9 187.26 547.29 204.82 571.25 212.62 576.1 197.58 Z"/>
<path d="M 439.57 566.72 416.47 558.33 414.47 564.01 393.39 553.7 394.61 550.46 391.29 548.98 398.7 522.02 389.23 520.65 394.19 514.8 390.91 511.31 377.51 499.97 379.93 499.88 383.46 495.9 374.74 487.48 373.83 488.39 364.17 479.17 362 474.31 361.81 468.63 371.05 463.76 376.63 464.57 393.22 462.51 408.67 460.05 418.1 459.8 431.11 464.9 450.66 470.02 451.43 472.4 468.9 508.66 461.06 516.84 453.98 530.15 449.48 541.29 446.48 550.3 443.2 557.36 442.25 562.97 439.57 566.72 Z"/>
<path d="M 288.53 340.12 292.38 337.22 299.7 339.53 270.34 436.32 268.16 435.51 238.03 420.85 227.82 409.17 214.48 404.78 202.59 393.42 210.72 383.78 213.02 377.22 213.33 372.81 241.75 381.66 253.26 385.51 266.09 377.49 272.03 367.82 282.6 352.68 288.53 340.12 Z"/>
<path d="M 600.28 99.51 608.44 118.9 613.81 126.83 625.47 149.85 626.53 153.01 616.13 157.42 617.74 160.68 604.33 167.42 602.95 164.64 584.24 173.78 584.59 170.55 580.92 163.42 576.6 160.65 569.44 146.44 556.59 119.69 593.41 101.65 600.28 99.51 Z"/>
<path d="M 451.88 213.81 451.8 227.75 450.48 231.65 446.7 234.32 441.6 235.22 437.84 242.59 443.13 243.54 434.39 267.23 434.12 286.36 427.54 307.1 424.04 310 418.64 298.05 406.9 255.23 405.39 248.67 402.5 230.1 429.68 233.09 435.7 232.35 442.57 227.51 447 218.68 451.88 213.81 Z"/>
<path d="M 272.54 142.79 230.87 151.33 198.14 155.31 194.57 129.04 195.36 124.75 198.97 117.94 199.19 109.64 197.89 104.33 198.98 88.74 201.51 81.76 219.22 88.63 217.83 92.27 233.91 101.01 240.67 97.62 252.86 94.25 259.85 116.72 263.59 128.86 267.2 128.27 272.54 142.79 Z"/>
<path d="M 503.15 116.27 512.23 114.81 521.82 112.4 534.62 104.23 537.8 101.37 533.85 108.82 533.68 117.3 533.09 124.83 509.91 161.58 506.06 160.37 504.5 123.37 503.15 116.27 Z"/>
<path d="M 420.68 168.85 462.29 181.72 454.5 206.23 460.88 206.15 451.88 213.81 449.49 210.23 445.66 210.49 447.61 204.48 442.26 202.8 397.84 208.05 392.17 180.36 395.26 179.81 416.36 182.06 420.68 168.85 Z"/>
<path d="M 272.54 142.79 267.2 128.27 263.59 128.86 259.85 116.72 291.11 111.03 304.04 110.02 310.82 110.44 312.2 117.47 314.97 133.31 315.96 134.45 319 153.07 276.43 161.78 272.54 142.79 Z"/>
<path d="M 324.84 256.64 333.69 227.4 348.9 177.54 383.76 207.34 388.9 209.13 397.84 208.05 402.5 230.1 395.86 228.47 391.03 222.89 386.87 220.74 383.97 221.26 374.83 225.89 370.47 230.7 362.29 251.73 359.89 255.83 355.35 259.88 340.46 269.96 333.16 271.09 326.04 269.59 321.62 267.01 324.84 256.64 Z"/>
<path d="M 299.65 445.2 296.63 446.69 285.17 484.64 261.88 477.49 267.65 452.75 268.48 442.69 270.34 436.32 299.65 445.2 Z"/>
<path d="M 360.36 139.89 364.71 125.49 380.79 130.75 379.58 116.92 383.11 108.59 386.42 109.78 396.45 108.01 399.85 110.07 389.51 142.07 386.22 151.84 362.72 144.42 363.81 140.98 360.36 139.89 Z"/>
<path d="M 348.9 177.54 360.36 139.89 363.81 140.98 362.72 144.42 386.22 151.84 392.17 180.36 397.84 208.05 388.9 209.13 383.76 207.34 348.9 177.54 Z"/>
<path d="M 608.83 208.4 596.58 204.3 594.56 205.63 592.25 211.2 589.47 211.27 579.62 207.97 577.27 205.63 579.01 198.55 576.1 197.58 579.57 184.06 589.77 187.36 585.67 178.73 584.24 173.78 602.95 164.64 604.33 167.42 617.74 160.68 616.13 157.42 626.53 153.01 633.88 167.84 640.94 180.73 648.16 195.43 650.22 197.11 654.72 205.64 629.17 218.2 624.31 213.47 608.83 208.4 Z"/>
<path d="M 579.57 184.06 509.91 161.58 533.09 124.83 533.68 117.3 535.79 119.2 538.66 114.93 544.78 117.68 548.28 115.93 547.46 108.95 552.12 109.73 556.59 119.69 569.44 146.44 576.6 160.65 580.92 163.42 584.59 170.55 584.24 173.78 585.67 178.73 589.77 187.36 579.57 184.06 Z"/>
<path d="M 451.88 213.81 460.88 206.15 466.82 202.84 479.79 199.97 483.08 198.55 487.66 193.4 499.92 197.3 498.36 204.09 496.03 215.8 499.08 220.41 520.11 225.64 523.32 227.71 524.55 230.91 532.24 320.88 515.02 322.34 498.82 320.26 490.23 321.2 483.56 319.36 484.31 329.7 455.08 322.31 446.28 319.74 429.11 321.12 424.04 310 427.54 307.1 434.12 286.36 434.39 267.23 443.13 243.54 437.84 242.59 441.6 235.22 446.7 234.32 450.48 231.65 451.8 227.75 451.88 213.81 Z"/>
<path d="M 114.04 197.97 111.63 200.93 108.7 208.45 114 209.58 112.4 219.65 119.29 236.62 125.28 253.29 117.76 256.71 114.65 261.11 103.96 299.57 82.31 293.6 80.44 300.7 55.76 293.92 56.66 287.45 68.28 265.18 73.03 257.27 88.86 221.2 95.97 211.15 102.47 205.75 114.04 197.97 Z"/>
<path d="M 161 30.7 163.27 33.42 157.22 36.91 165.72 68.68 164.59 68.35 159.78 84.95 153.01 82.9 144.15 113.51 111.13 103.78 110.61 109.43 113.07 111.5 111.95 115.26 108.14 118.01 99.87 113.55 99.95 111.72 93.87 106.69 82.61 102.75 79.25 104.07 77.61 99.71 73.97 97.21 69.01 90.13 64.24 93.18 60.78 88.58 60.01 82.37 63.8 76.88 65.2 68.76 68.01 65.89 67.34 59.93 59.45 60.74 57.66 59.18 56.03 51.14 53.26 44.78 54.07 36.84 59.61 35.16 65.03 36.48 80.06 37.91 89.53 38.24 98.91 37.32 108.03 35.09 115 35.65 127.24 38.9 138.13 38.52 148.65 35.59 154.37 31.79 161 30.7 Z"/>
<path d="M 468.9 508.66 451.43 472.4 450.66 470.02 457.73 471.86 458.77 467.33 456.5 463.54 460.19 448.3 468.91 450.42 470.51 449.39 473.38 439.69 483.14 440.23 492.24 440.22 530.2 445.04 527.12 460.35 526.05 479.33 521.89 478.8 517.32 487.45 514.05 485.78 514.26 499.51 512.83 508.63 510.75 515.2 503.86 515.79 499.89 517.2 491.26 516.12 485.95 514.12 486.56 497.11 482.8 499.54 476.95 501.29 468.9 508.66 Z"/>
<path d="M 108.14 118.01 111.95 115.26 113.07 111.5 110.61 109.43 111.13 103.78 144.15 113.51 179.43 123.9 180.26 123.38 195.36 124.75 194.57 129.04 198.14 155.31 171.15 159.25 171.98 170.15 138.06 175.33 132.8 169.81 129.49 167.38 125.73 167.53 123.58 160.58 123.44 153.63 121.4 151.77 125.23 144.75 116.84 136.02 113.7 130.37 112.85 126.05 108.14 118.01 Z"/>
<path d="M 220.73 313.64 226.13 316.39 241.32 321.93 243.08 313.52 263.91 319.91 252.52 350.01 254.99 353.92 258.33 364.3 262.5 369.65 266.09 377.49 253.26 385.51 241.75 381.66 213.33 372.81 214.01 365.53 214.17 352.88 215.17 325.28 217.92 317.23 220.73 313.64 Z"/>
<path d="M 253.69 37.69 251.62 43.68 257.72 45.87 250.38 68.16 218.97 57.41 215.55 57.08 197.04 47.9 196.35 48.07 170.31 35.72 173.9 28.49 165.15 24.26 171.12 14.99 173.72 1 182.78 5.77 190.01 7.18 193.01 5.34 202.48 12.7 206.48 13.85 213.37 21.72 216.96 23.17 223.3 27.86 236.1 33.56 236.91 34.87 245.54 37.75 253.69 37.69 Z"/>
<path d="M 250.38 68.16 240.67 97.62 233.91 101.01 217.83 92.27 219.22 88.63 201.51 81.76 193.25 78.75 167.46 76.28 165.72 68.68 157.22 36.91 163.27 33.42 161 30.7 165.15 24.26 173.9 28.49 170.31 35.72 196.35 48.07 197.04 47.9 215.55 57.08 218.97 57.41 250.38 68.16 Z"/>
<path d="M 140.14 362.5 156.04 346.17 167.58 334.34 177.43 359.16 173.29 363.54 214.01 365.53 213.33 372.81 213.02 377.22 210.72 383.78 202.59 393.42 214.48 404.78 213.03 409.47 215.13 421.62 213.05 425.41 208.12 429.67 204.78 434.62 184.6 496.43 182.81 498.18 173.76 495.8 171.04 496.51 162.75 489.85 148.88 480.33 140.52 477.8 79.5 445.91 81.33 442.27 68.8 435.81 140.14 362.5 Z"/>
<path d="M 261.88 477.49 285.17 484.64 296.63 446.69 299.65 445.2 318 447.95 336.75 452.47 350.84 459.33 371.05 463.76 361.81 468.63 362 474.31 364.17 479.17 361.9 483.71 357.97 487.64 355.79 493.25 351.53 496.58 351.68 499.79 347.37 501.55 347.78 508.64 345.48 510.84 337.95 502.61 333.55 508.74 327.31 545.38 295.85 532.69 295.14 531.83 274.65 523.83 253.93 516.46 245.14 513.81 245.69 512.21 253.64 510.51 255.17 508.62 261.88 477.49 Z"/>
<path d="M 263.47 229.93 272.83 235.47 271.14 239.26 276.79 242.58 278.73 239.87 294.26 250.76 299.68 255.06 305.4 252.92 313.41 253.07 324.84 256.64 321.62 267.01 326.04 269.59 311.12 265.8 303.24 266.27 295.19 271.45 292.51 279.45 291.29 282.99 280.57 279.36 265.32 278.31 256.68 279.62 251.31 272.6 252.82 271.25 255.74 261.82 253.09 258.73 252 248.91 247.39 246.82 254.9 235.36 260 236.23 263.47 229.93 Z"/>
<path d="M 145.79 270.91 144.39 274.03 147.43 284.42 146.04 291.11 151.09 298.79 154.11 309.55 150.88 310.1 144.01 308.11 143.3 310.59 103.96 299.57 114.65 261.11 117.76 256.71 125.28 253.29 132.59 250 136.34 249.78 139.57 254.33 137.55 264.46 145.79 270.91 Z"/>
<path d="M 415.9 402.84 423.64 404.76 428.65 404.57 435.43 400.19 438.03 393.61 440.71 375.82 452.85 371.36 464.32 396.7 464.91 404.22 467.92 405.49 483.14 440.23 473.38 439.69 470.51 449.39 468.91 450.42 460.19 448.3 456.5 463.54 458.77 467.33 457.73 471.86 450.66 470.02 431.11 464.9 418.1 459.8 408.67 460.05 393.22 462.51 376.63 464.57 371.05 463.76 378.11 457.09 385.79 453.18 390.84 448.73 394.69 448.08 398.06 438.95 402.8 434.55 402.12 428 400.78 426.26 403.28 417.79 405.9 414.23 409.97 412.81 411.56 409.22 414.85 407.39 415.9 402.84 Z"/>
<path d="M 312.12 68.13 318.35 72.75 322.45 71.12 328.52 78.18 334.49 82.36 336.77 82.27 343.86 85.98 348.13 85.61 362.19 92.05 370.55 94.33 373.29 92.76 378.72 94.08 377.76 97.52 373.37 96.98 371.53 102.82 365 100.63 363.52 103.9 355.91 101.33 347.8 128.66 313.26 117.35 312.2 117.47 310.82 110.44 308.59 97.95 310.49 77.05 312.84 72.69 312.12 68.13 Z"/>
<path d="M 536.97 98.02 546.78 92.98 547.73 87.17 544.11 82.05 543.82 78.69 550.77 68.58 557.79 48.67 550.12 41.27 552.13 39.2 549.74 35.32 544.18 30.17 555.54 32.31 559.33 36.14 566.26 49.37 579.07 55.73 589.35 51.26 595.14 82.14 600.23 93.62 600.28 99.51 593.41 101.65 556.59 119.69 552.12 109.73 547.46 108.95 548.28 115.93 544.78 117.68 538.66 114.93 535.79 119.2 533.68 117.3 533.85 108.82 537.8 101.37 536.97 98.02 Z"/>
<path d="M 536.97 98.02 537.8 101.37 534.62 104.23 521.82 112.4 512.23 114.81 503.15 116.27 501.35 105.96 506.42 102.54 511.69 103.77 518.2 102.38 525.34 102.81 536.97 98.02 Z"/>
<path d="M 484.6 111.34 485.49 108.51 489.1 110.46 496 110.06 501.35 105.96 503.15 116.27 504.5 123.37 506.06 160.37 472.59 149.54 483.67 115.23 484.6 111.34 Z"/>
<path d="M 472.59 149.54 431.39 136.11 436.06 121.71 441.94 103.51 448.85 106.73 451.86 101.51 456.81 104.44 467.9 107.04 483.62 108.91 485.49 108.51 484.6 111.34 483.67 115.23 472.59 149.54 Z"/>
<path d="M 185.63 213.75 180.68 211.12 159.51 251.41 157.43 256.43 151.16 259.48 151.02 255.29 148.85 247.62 147.8 238.59 142.72 229.2 136.33 221.8 141.6 194.51 133.23 193.05 136.71 187.27 139.15 181.15 138.06 175.33 171.98 170.15 173.02 177.97 180.76 192.96 181.62 196.56 186.91 207.02 185.63 213.75 Z"/>
<path d="M 151.16 259.48 150.42 264.93 149.21 268.29 145.79 270.91 137.55 264.46 139.57 254.33 136.34 249.78 132.59 250 125.28 253.29 119.29 236.62 112.4 219.65 114 209.58 108.7 208.45 111.63 200.93 114.04 197.97 123.99 191.5 127.02 187.06 132.8 169.81 138.06 175.33 139.15 181.15 136.71 187.27 133.23 193.05 141.6 194.51 136.33 221.8 142.72 229.2 147.8 238.59 148.85 247.62 151.02 255.29 151.16 259.48 Z"/>
<path d="M 383.11 108.59 389.91 97.18 377.76 97.52 378.72 94.08 380.73 94.9 385.24 91.56 386.93 87.08 391.8 86.05 395.49 87.34 397.77 84.38 405.88 88.31 417.76 90.25 425.63 89.53 428.35 88.21 436.89 94.81 450.17 100.25 451.86 101.51 448.85 106.73 441.94 103.51 436.06 121.71 421.78 116.79 399.85 110.07 396.45 108.01 386.42 109.78 383.11 108.59 Z"/>
</g>
</svg>