<svg xmlns="http://www.w3.org/2000/svg" xmlns:xlink="http://www.w3.org/1999/xlink" viewBox="0 0 139.75 27.16"><defs><style>.cls-1{fill:none;}.cls-12,.cls-2{fill:#fff;}.cls-3{clip-path:url(#clip-path);}.cls-4{fill:#6666cb;}.cls-10,.cls-11,.cls-12,.cls-4,.cls-5,.cls-6,.cls-7,.cls-8,.cls-9{fill-rule:evenodd;}.cls-5{fill:#f60;}.cls-6{fill:red;}.cls-7{fill:#cbcbff;}.cls-8{fill:#33cb66;}.cls-9{fill:#9800cb;}.cls-10{fill:#ffff61;}.cls-11{fill:#fdb900;}</style><clipPath id="clip-path" transform="translate(0)"><rect class="cls-1" y="0.47" width="29.85" height="26.69"/></clipPath></defs><title>logoOBS</title><g id="Layer_2" data-name="Layer 2"><g id="Layer_3" data-name="Layer 3"><g id="Top_Menu" data-name="Top Menu"><path class="cls-2" d="M38.94,2.69a5,5,0,0,1,3.79,1.46,6.2,6.2,0,0,1,1.38,4.06,6.63,6.63,0,0,1-1.36,4.22A5.16,5.16,0,0,1,38.91,14a5.24,5.24,0,0,1-3.82-1.48,5.89,5.89,0,0,1-1.32-4C33.77,5.6,35.06,2.69,38.94,2.69ZM37,11.4a2.58,2.58,0,0,0,4-.13,5.22,5.22,0,0,0,.73-3.09,6.39,6.39,0,0,0-.27-1.93,2.57,2.57,0,0,0-4.45-1,5,5,0,0,0-.79,3.14A5,5,0,0,0,37,11.4Z" transform="translate(0)"/><path class="cls-2" d="M45,2.92h4a5.31,5.31,0,0,1,2.66.51,2.72,2.72,0,0,1,1.21,2.3,2.17,2.17,0,0,1-.63,1.61A2.93,2.93,0,0,1,51,8.07v0a2.58,2.58,0,0,1,2.28,2.63,2.79,2.79,0,0,1-1.58,2.54A7,7,0,0,1,49,13.7H45Zm2.21,4.39h1.61c.66,0,1.85,0,1.85-1.39s-1.13-1.34-1.89-1.34H47.16Zm0,4.66h1.57C49.79,12,51,12,51,10.52S49.59,9,48.49,9H47.16Z" transform="translate(0)"/><path class="cls-2" d="M56,10.25a1.77,1.77,0,0,0,2,2.05c1.25,0,2-.6,2-1.51s-.67-1.12-2-1.45c-2.57-.64-4-1.4-4-3.27s1.26-3.34,4.26-3.34A4,4,0,0,1,61.5,4a3.12,3.12,0,0,1,.61,2H59.89a1.6,1.6,0,0,0-1.75-1.64c-1.07,0-1.78.58-1.78,1.46S57.15,7,58.71,7.39c1.86.44,3.7,1,3.7,3.06,0,1.94-1.61,3.5-4.6,3.5-4.13,0-4.16-2.65-4.18-3.7Z" transform="translate(0)"/><path class="cls-2" d="M63.3,2.91h7.22V4.67H65.61V7.24h4.6V9h-4.6v2.91h5.08V13.7H63.3Z" transform="translate(0)"/><path class="cls-2" d="M71.49,2.91h4.13a4.81,4.81,0,0,1,3.27.73,2.73,2.73,0,0,1,.94,2.08,2.7,2.7,0,0,1-2.25,2.64c1.62.15,1.74,1.07,1.94,2.47s.25,1.79.32,2.09a2,2,0,0,0,.33.78H77.62c-.1-.6-.43-3.33-.58-3.75-.21-.61-.78-.61-1.17-.61h-2V13.7H71.49Zm2.28,4.72h1.87a1.87,1.87,0,0,0,1.17-.3,1.5,1.5,0,0,0,.6-1.26,1.36,1.36,0,0,0-.57-1.21,2.56,2.56,0,0,0-1.52-.25H73.77Z" transform="translate(0)"/><path class="cls-2" d="M82.21,3,85,11.42,87.87,3h2.28l-4,10.75H83.66L79.69,3Z" transform="translate(0)"/><path class="cls-2" d="M95.18,2.91,98.92,13.7H96.59l-.77-2.33H91.55l-.81,2.33H88.53l3.9-10.79Zm.06,6.72L93.74,5l-1.59,4.6Z" transform="translate(0)"/><path class="cls-2" d="M100.62,4.7H97.41V2.91h8.75V4.7H103v9h-2.33Z" transform="translate(0)"/><path class="cls-2" d="M111.09,2.69a5,5,0,0,1,3.79,1.46,6.19,6.19,0,0,1,1.37,4.06,6.62,6.62,0,0,1-1.35,4.22,5.61,5.61,0,0,1-7.66.06,5.91,5.91,0,0,1-1.33-4C105.91,5.6,107.21,2.69,111.09,2.69Zm-2,8.71a2.57,2.57,0,0,0,4-.13,5.2,5.2,0,0,0,.74-3.09,6.39,6.39,0,0,0-.27-1.93,2.5,2.5,0,0,0-2.47-1.91,2.45,2.45,0,0,0-2,.91,5,5,0,0,0-.79,3.14A4.89,4.89,0,0,0,109.14,11.4Zm2.14-9.24h-1.19L111.33,0h2Z" transform="translate(0)"/><path class="cls-2" d="M117,2.91h4.13a4.79,4.79,0,0,1,3.27.73,2.73,2.73,0,0,1,.94,2.08,2.7,2.7,0,0,1-2.25,2.64c1.62.15,1.74,1.07,1.94,2.47a18.22,18.22,0,0,0,.33,2.09,2.15,2.15,0,0,0,.32.78h-2.55c-.1-.6-.43-3.33-.58-3.75-.21-.61-.78-.61-1.16-.61h-2V13.7H117Zm2.28,4.72h1.87a1.9,1.9,0,0,0,1.18-.3A1.52,1.52,0,0,0,123,6.07a1.36,1.36,0,0,0-.56-1.21,2.59,2.59,0,0,0-1.53-.25h-1.55Z" transform="translate(0)"/><path class="cls-2" d="M126.3,2.88h2.32V13.7H126.3Z" transform="translate(0)"/><path class="cls-2" d="M134.58,2.69a5,5,0,0,1,3.79,1.46,6.2,6.2,0,0,1,1.38,4.06,6.63,6.63,0,0,1-1.36,4.22A5.16,5.16,0,0,1,134.55,14a5.22,5.22,0,0,1-3.82-1.48,5.91,5.91,0,0,1-1.33-4C129.4,5.6,130.7,2.69,134.58,2.69Zm-2,8.71a2.58,2.58,0,0,0,4-.13,5.3,5.3,0,0,0,.73-3.09,6.39,6.39,0,0,0-.27-1.93,2.57,2.57,0,0,0-4.45-1,5,5,0,0,0-.79,3.14A5,5,0,0,0,132.63,11.4Z" transform="translate(0)"/><path class="cls-2" d="M34.22,16.07h2.57l1,0a5.5,5.5,0,0,1,.88.13,3.36,3.36,0,0,1,.89.35,2.93,2.93,0,0,1,.77.65,4.25,4.25,0,0,1,.83,1.52,6.14,6.14,0,0,1,.26,1.83A5.19,5.19,0,0,1,41,22.8a3.87,3.87,0,0,1-1,1.41,2.76,2.76,0,0,1-1.3.6,12.34,12.34,0,0,1-2,.13H34.22Zm1.23,7.86h1.2a7.64,7.64,0,0,0,1.36-.1,2.31,2.31,0,0,0,1-.39,2.45,2.45,0,0,0,.64-.69A3.08,3.08,0,0,0,40,22a4.75,4.75,0,0,0,.14-.72c0-.21,0-.42,0-.62s0-.31,0-.51-.06-.43-.11-.7a3.88,3.88,0,0,0-.26-.82,3,3,0,0,0-.47-.73,2.16,2.16,0,0,0-1-.61,5,5,0,0,0-1.41-.16H35.45Z" transform="translate(0)"/><path class="cls-2" d="M42.39,16.07H48v1H43.62v2.76h4.12v1H43.62v2.94h4.43v1.09H42.39Z" transform="translate(0)"/><path class="cls-2" d="M52.34,16.07h5.28v1h-4v2.76h3.8v1h-3.8v4H52.34Z" transform="translate(0)"/><path class="cls-2" d="M58.14,19.68a6,6,0,0,1,.17-.91,4.69,4.69,0,0,1,.35-.92,3.4,3.4,0,0,1,.57-.83,3.65,3.65,0,0,1,.72-.59,3.86,3.86,0,0,1,.77-.37,4.09,4.09,0,0,1,.75-.18,6.09,6.09,0,0,1,.72-.05A3.78,3.78,0,0,1,65.13,17a4.92,4.92,0,0,1,1.06,3.41A7.3,7.3,0,0,1,66,22.2a4.26,4.26,0,0,1-.68,1.5A3.23,3.23,0,0,1,64,24.76a5.09,5.09,0,0,1-3.81,0,3.21,3.21,0,0,1-1.24-1,3.74,3.74,0,0,1-.68-1.45,7.12,7.12,0,0,1-.21-1.78A6.49,6.49,0,0,1,58.14,19.68ZM59.55,22a3.25,3.25,0,0,0,.61,1.25,2.08,2.08,0,0,0,.87.63,3.25,3.25,0,0,0,1.1.18,3,3,0,0,0,1.09-.19,2.06,2.06,0,0,0,.87-.62,2.8,2.8,0,0,0,.43-.71,4.27,4.27,0,0,0,.24-.8,6.7,6.7,0,0,0,.1-.73c0-.24,0-.45,0-.65A6.83,6.83,0,0,0,64.75,19a3.42,3.42,0,0,0-.45-1.12,2.08,2.08,0,0,0-.84-.74,2.86,2.86,0,0,0-1.26-.25,2.82,2.82,0,0,0-1.36.29A2.32,2.32,0,0,0,60,18a3.43,3.43,0,0,0-.46,1.15,6.74,6.74,0,0,0-.13,1.38A7,7,0,0,0,59.55,22Z" transform="translate(0)"/><path class="cls-2" d="M67.18,16.07h3.17a7.59,7.59,0,0,1,1.09.07,2.36,2.36,0,0,1,.94.34,2,2,0,0,1,.74.78,2.15,2.15,0,0,1,.25,1,2.29,2.29,0,0,1-.17.87,2,2,0,0,1-.46.7,1.87,1.87,0,0,1-.51.38,2.41,2.41,0,0,1-.53.2,1.77,1.77,0,0,1,1,.53,2.3,2.3,0,0,1,.39,1.18v.05c.07.63.15,1.14.22,1.52a7.38,7.38,0,0,0,.32,1.22H72.29a5.73,5.73,0,0,1-.21-.88c-.06-.36-.12-.78-.17-1.27,0-.13,0-.19,0-.2a5,5,0,0,0-.16-.82,1.25,1.25,0,0,0-.31-.5,1.23,1.23,0,0,0-.55-.26,4.41,4.41,0,0,0-.92-.08H68.39v4H67.18Zm1.19,3.82h1.94c.19,0,.39,0,.62,0a1.37,1.37,0,0,0,.55-.16,1.28,1.28,0,0,0,.41-.4,1.36,1.36,0,0,0,.19-.75,1.56,1.56,0,0,0-.19-.81,1.26,1.26,0,0,0-.48-.44,1.94,1.94,0,0,0-.54-.16,5,5,0,0,0-.56,0H68.37Z" transform="translate(0)"/><path class="cls-2" d="M76.86,24.94V17.11h-3v-1H81v1h-3v7.83Z" transform="translate(0)"/><path class="cls-2" d="M83.39,16.07H84.7l3.59,8.87H87l-1-2.31H81.88l-1,2.31H79.66Zm-1.12,5.56h3.36L84,17.28Z" transform="translate(0)"/><path class="cls-2" d="M89,16.07h1.21v7.77h4.13v1.1H89Z" transform="translate(0)"/><path class="cls-2" d="M95,16.07h5.56v1H96.21v2.76h4.13v1H96.21v2.94h4.44v1.09H95Z" transform="translate(0)"/><path class="cls-2" d="M101.35,23.71l5.12-6.56h-5V16.07h6.45v1.21l-5.17,6.57H108v1.09h-6.67Z" transform="translate(0)"/><path class="cls-2" d="M112.06,16.07h1.31L117,24.94h-1.34l-1-2.31h-4.11l-1,2.31h-1.26Zm-1.12,5.56h3.36l-1.64-4.35Z" transform="translate(0)"/><g class="cls-3"><path class="cls-4" d="M1.05,7.87l6.62,2.27.51.45h0a7.55,7.55,0,0,0-.92,3.63v0L0,11.76Zm21.54,7.37,7.26,2.48L28.79,21.6,24,20l-2.27-2a7.64,7.64,0,0,0,.89-2.68" transform="translate(0)"/><path class="cls-5" d="M3.3,22,7.12,19l.9-.22L7.35,22l2.76-.85-4.6,3.67ZM22.65,6.55,26,3.84,28.25,6.6,23,10.77,22,11l.18.44a7.93,7.93,0,0,0-.61-1.24l.2,0Z" transform="translate(0)"/><path class="cls-6" d="M12.58,26.9,12.77,25l.12.05,1.57-3.14.5,0c.25,0,.5,0,.75,0l.8,2.47-.29,2.82" transform="translate(0)"/><polygon class="cls-6" points="13.11 21.68 13.11 21.68 13.13 21.68 13.11 21.68"/><path class="cls-6" d="M16.31,21.79l.47-.1-.47.1" transform="translate(0)"/><path class="cls-6" d="M14.65,6.53l.52-5,3.64.27-.32,3.17-1,2A7.54,7.54,0,0,0,15,6.52h-.31" transform="translate(0)"/><path class="cls-7" d="M2.27,16l5-1.26a7.66,7.66,0,0,0,1,3.29l-.11,0L8,18.74,3.28,19.92ZM22,11,26.33,10l1,3.94-4.74,1.19a8.31,8.31,0,0,0,0-.87A7.64,7.64,0,0,0,22,11" transform="translate(0)"/><path class="cls-8" d="M6.72,4.56l3,2.65L7.27,6.52l1,3.65.19,0c-.08.13-.16.26-.23.39L4.37,7.19Zm15,13.36,4,3.55L23.33,24.1l-3.25-2.9,2.57.76-.89-4h-.1l0-.07" transform="translate(0)"/><path class="cls-9" d="M9.33,23.25,10.46,21l.42-.13,0-.11a7.63,7.63,0,0,0,3.53,1.13L12.89,25ZM17.48,7,19,3.85l3.56,1.78-.52,1-3.13.81-.06.12A7.75,7.75,0,0,0,17.48,7" transform="translate(0)"/><path class="cls-10" d="M17.29,26.75l-1.58-4.88a7.68,7.68,0,0,0,3.34-1.14l1.63,5.05-3.39,1" transform="translate(0)"/><path class="cls-10" d="M11.09,7.57l-2-6.13,3.39-1,2,6.07a7.73,7.73,0,0,0-3.37,1" transform="translate(0)"/><path class="cls-11" d="M15,21.91h0a7.61,7.61,0,0,0,3.93-1.09l-.57-1.56-6.79,0-.6,1.45a7.61,7.61,0,0,0,4,1.15M21.66,18a7.69,7.69,0,0,0,1-3.78,7.58,7.58,0,0,0-1.11-4l-1.88.27-.05,7.19ZM18.88,7.6a7.64,7.64,0,0,0-7.9,0l.5,1.49,6.73,0ZM8.41,10.2A7.64,7.64,0,0,0,8.28,18l2-.31,0-7.14Z" transform="translate(0)"/><polygon class="cls-12" points="7.27 6.52 10.96 7.57 11.48 9.13 18.21 9.18 18.93 7.48 22.66 6.52 21.74 10.21 19.66 10.51 19.61 17.7 21.76 18 22.66 21.96 18.91 20.86 18.32 19.26 11.53 19.31 10.88 20.87 7.35 21.96 8.17 18.03 10.3 17.7 10.28 10.56 8.22 10.17 7.27 6.52"/></g></g></g></g></svg>