<svg xmlns="http://www.w3.org/2000/svg" viewBox="0 0 150.7 64.7"><title>Logo_Full_Hor_Col_Light</title><path d="M57.5,50.9h8.4v1.5H59.2v4h5.5V58H59.2v4.8h6.7v1.5H57.5Z" style="fill:#81cbd9"/><path d="M70.8,53.4h0l-.4,10.9H68.6l.5-13.4h2.3l2.4,5.8,2.5-5.8h2.2l.6,13.4H77.3l-.4-10.9h0l-3.1,7.1Z" style="fill:#81cbd9"/><path d="M92.6,53.4h-.1l-.3,10.9H90.4l.5-13.4h2.3l2.4,5.8L98,50.9h2.3l.6,13.4H99l-.3-10.9h-.1l-3,7.1Z" style="fill:#81cbd9"/><path d="M105.9,60.7l-1.3,4-1.7-.7,4.3-13.1h2.2L113.6,64l-1.7.7-1.2-4Zm2.4-7.8-1.9,6.2h3.8Z" style="fill:#81cbd9"/><path d="M119.1,64.3h-1.7V50.9h4.2c3.1,0,4.3,1.7,4.3,3.6a3.7,3.7,0,0,1-3.9,4h-2.9Zm2.4-7.3c1.7,0,2.6-.8,2.6-2.3s-1.2-2.3-2.6-2.3h-2.4V57Z" style="fill:#81cbd9"/><path d="M131.3,60.7l-1.3,4-1.7-.7,4.2-13.1h2.3L139,64l-1.7.7-1.2-4Zm2.4-7.8-2,6.2h3.9Z" style="fill:#81cbd9"/><path d="M143.5,60.1c.3,1.6,1.1,2.8,3,2.8s2.5-.7,2.5-2.2-1.4-2.1-2.7-2.7-3.8-1.3-3.8-3.8a3.6,3.6,0,0,1,3.9-3.6,3.9,3.9,0,0,1,4.1,3.4l-1.6.5c-.3-1.3-1-2.3-2.5-2.3a2,2,0,0,0-2.2,1.8c0,1.3.8,1.7,1.8,2.1l2.9,1.3a3.5,3.5,0,0,1,1.8,3.2,3.9,3.9,0,0,1-4.2,4,4.4,4.4,0,0,1-4.5-4Z" style="fill:#81cbd9"/><path d="M2.5,43A45.9,45.9,0,0,0,13,30.2c2.8-5.4,3.3-11.9,1.7-20.3h-.5a3.8,3.8,0,0,1-1.4,2.4,4.6,4.6,0,0,1-3.9.8c-2.7.7-4.3.6-4.7-.2H4.1c0,.2-.1.3.1.6a8.1,8.1,0,0,1,1.4,4.4,4.8,4.8,0,0,1,4.3,3.9,21.5,21.5,0,0,1,.3,4.4.9.9,0,0,1-.8.4c-.1,0-2,.1-4.9,6.6C2.6,37.4,1.1,38.4.3,39l-.3.3c0,.2.4,1,.5,1.4h0A15.3,15.3,0,0,0,2.5,43Z" style="fill:#81cbd9"/><path d="M43.4,24.2,38,34.4a1.1,1.1,0,0,1-1.8,0h0L30.6,23.8a40,40,0,0,1-5.8,19.5,108.5,108.5,0,0,1-6.5,9.3c2.9,1,9.1,3.5,10.9,7.3l.8.5A77.3,77.3,0,0,0,43.3,34,20.3,20.3,0,0,0,43.4,24.2Z" style="fill:#1d787f"/><path d="M56.5,30.7c-4.1-5.6-7.2-14.3-7.3-14.6l-.5-1.7h-.3v.2l-4,7.7a22.4,22.4,0,0,1,.2,11.8A78.5,78.5,0,0,1,31.1,61.1c3.8,2.3,6.7,3.3,8.3,2.6A2.3,2.3,0,0,0,40.6,62c0-.6.2-3.2,4.8-5.8a7.4,7.4,0,0,0,2.4-3.4.5.5,0,0,1,.5-.5c.2,0,4.9-.2,5.6-6,.4-3.6.5-4.7,1.3-5.1a1.6,1.6,0,0,1,1.7.3l1.5.6c1.7.5,2.2.3,2.3.2a.7.7,0,0,1,.4-.5.6.6,0,0,1,.7.2,20.6,20.6,0,0,0,4.1,3.8C65,43.5,60.5,36.1,56.5,30.7Z" style="fill:#0a484f"/><path d="M26.8,16.6a31.9,31.9,0,0,1-5.7-3.3c-.8,0-3.3-.3-4.4-1.8a1.8,1.8,0,0,0-.5-.7c1.4,8.1.7,14.5-2.1,20a44.4,44.4,0,0,1-10.7,13c2.3,2,6.4,4.9,13.5,8.4H17a95.9,95.9,0,0,0,6.7-9.6,38.6,38.6,0,0,0,5.7-21.2Z" style="fill:#45aeb5"/><path d="M37.1,0V3.1h0A7.4,7.4,0,0,0,37,17.9v1.3c0,5.6,0,10.9.1,14.1L27,14.4a11.5,11.5,0,0,1-.6-3.7A10.7,10.7,0,0,1,37.1,0Z" style="fill:#1d787f"/><path d="M37.1,0V1.8h0A8.7,8.7,0,0,0,37,19.2c0,5.6,0,10.9.1,14.1h0l10-18.9a11.6,11.6,0,0,0,.7-3.7A10.7,10.7,0,0,0,37.1,0Zm0,3.1h0a7.4,7.4,0,0,1,0,14.8H37a7.4,7.4,0,0,1,.1-14.8Z" style="fill:#0a484f"/><path d="M72.4,35.2h6.7v1.2H73.8v3.2h4.4v1.2H73.8v5H72.4Z" style="fill:#fff"/><path d="M87.6,40.5c0,.9-.1,5.5-3.8,5.5-1.7,0-3.7-1.2-3.7-5.5s2-5.5,3.7-5.5S87.6,36.3,87.6,40.5Zm-6.1,0c0,1.6.3,4.2,2.3,4.2s2.4-2.6,2.4-4.2-.3-4.2-2.4-4.2S81.5,39,81.5,40.5Z" style="fill:#fff"/><path d="M89.7,35.2h3.6c1.8,0,3.2.9,3.2,2.9a3.2,3.2,0,0,1-2.2,3l2.6,4.2-1.2.8L93,41.3H91.1v4.5H89.7Zm3.1,4.9a2,2,0,0,0,2.2-2,1.6,1.6,0,0,0-1.7-1.7H91.1v3.7Z" style="fill:#fff"/><path d="M101,36.4H98.1V35.2h7.2v1.2h-2.9v9.4H101Z" style="fill:#fff"/><path d="M108.7,42.9l-1,3.2-1.3-.5,3.3-10.4h1.8l3.3,10.4-1.3.5-1-3.2Zm1.9-6.1-1.5,4.9h3Z" style="fill:#fff"/><path d="M116.9,35.2h1.4v9.4h5.5v1.2h-6.9Z" style="fill:#fff"/><path d="M125.5,35.2h6.6v1.2h-5.2v3.2h4.3v1.2h-4.3v3.8h5.2v1.2h-6.6Z" style="fill:#fff"/><path d="M138.9,36.4H134V35.2h7.2l-5.5,9.4h5.6v1.2h-7.9Z" style="fill:#fff"/><path d="M144.4,42.9l-1,3.2-1.3-.5,3.3-10.4h1.8l3.3,10.4-1.4.5-.9-3.2Zm1.9-6.1-1.5,4.9h3Z" style="fill:#fff"/></svg>